<svg width="24" height="24" viewBox="0 0 24 24" fill="none" xmlns="http://www.w3.org/2000/svg">
<path fill-rule="evenodd" clip-rule="evenodd" d="M22.5013 12C22.5013 11.8011 22.4223 11.6103 22.2817 11.4696C22.141 11.329 21.9503 11.25 21.7513 11.25H4.06184L8.78234 6.53097C8.85207 6.46124 8.90739 6.37846 8.94513 6.28735C8.98286 6.19624 9.00229 6.09859 9.00229 5.99997C9.00229 5.90135 8.98286 5.8037 8.94513 5.7126C8.90739 5.62149 8.85207 5.5387 8.78234 5.46897C8.71261 5.39924 8.62983 5.34392 8.53872 5.30619C8.44761 5.26845 8.34996 5.24902 8.25134 5.24902C8.15272 5.24902 8.05507 5.26845 7.96396 5.30619C7.87286 5.34392 7.79007 5.39924 7.72034 5.46897L1.72034 11.469C1.6505 11.5386 1.59508 11.6214 1.55727 11.7125C1.51946 11.8036 1.5 11.9013 1.5 12C1.5 12.0986 1.51946 12.1963 1.55727 12.2874C1.59508 12.3785 1.6505 12.4613 1.72034 12.531L7.72034 18.531C7.79007 18.6007 7.87286 18.656 7.96396 18.6938C8.05507 18.7315 8.15272 18.7509 8.25134 18.7509C8.34996 18.7509 8.44761 18.7315 8.53872 18.6938C8.62983 18.656 8.71261 18.6007 8.78234 18.531C8.85207 18.4612 8.90739 18.3785 8.94513 18.2873C8.98286 18.1962 9.00229 18.0986 9.00229 18C9.00229 17.9014 8.98286 17.8037 8.94513 17.7126C8.90739 17.6215 8.85207 17.5387 8.78234 17.469L4.06184 12.75H21.7513C21.9503 12.75 22.141 12.671 22.2817 12.5303C22.4223 12.3896 22.5013 12.1989 22.5013 12Z" fill="#1C2026"/>
</svg>
