<svg width="20" height="20" viewBox="0 0 20 20" fill="none" xmlns="http://www.w3.org/2000/svg">
<g clip-path="url(#clip0_393_16931)">
<path d="M14.6776 12.9293C15.888 11.2776 16.4301 9.22988 16.1955 7.19571C15.9609 5.16153 14.9669 3.29094 13.4123 1.95818C11.8578 0.625422 9.85733 -0.0712244 7.81119 0.00761702C5.76505 0.0864585 3.82413 0.934974 2.37673 2.38341C0.929335 3.83184 0.0822089 5.77337 0.0048316 7.81956C-0.0725457 9.86576 0.625532 11.8657 1.95941 13.4193C3.29328 14.9729 5.16458 15.9656 7.19892 16.1988C9.23326 16.4319 11.2806 15.8883 12.9314 14.6768H12.9301C12.9676 14.7268 13.0076 14.7743 13.0526 14.8205L17.8651 19.633C18.0995 19.8676 18.4175 19.9994 18.7491 19.9995C19.0807 19.9996 19.3987 19.868 19.6333 19.6336C19.8678 19.3993 19.9997 19.0813 19.9998 18.7497C19.9999 18.4181 19.8683 18.1001 19.6339 17.8655L14.8214 13.053C14.7767 13.0078 14.7286 12.966 14.6776 12.928V12.9293ZM15.0001 8.12427C15.0001 9.02711 14.8223 9.92111 14.4768 10.7552C14.1313 11.5893 13.6249 12.3472 12.9865 12.9856C12.3481 13.624 11.5902 14.1304 10.7561 14.4759C9.92198 14.8214 9.02798 14.9993 8.12514 14.9993C7.22231 14.9993 6.32831 14.8214 5.4942 14.4759C4.66008 14.1304 3.90219 13.624 3.26379 12.9856C2.62538 12.3472 2.11897 11.5893 1.77347 10.7552C1.42797 9.92111 1.25015 9.02711 1.25015 8.12427C1.25015 6.30091 1.97447 4.55223 3.26379 3.26291C4.5531 1.9736 6.30178 1.24927 8.12514 1.24927C9.94851 1.24927 11.6972 1.9736 12.9865 3.26291C14.2758 4.55223 15.0001 6.30091 15.0001 8.12427Z" fill="#494C51"/>
</g>
<defs>
<clipPath id="clip0_393_16931">
<rect width="20" height="20" fill="white"/>
</clipPath>
</defs>
</svg>
